<?xml version="1.0" encoding="UTF-8" standalone="no"?>
<svg
   xmlns:dc="http://purl.org/dc/elements/1.1/"
   xmlns:cc="http://creativecommons.org/ns#"
   xmlns:rdf="http://www.w3.org/1999/02/22-rdf-syntax-ns#"
   xmlns:svg="http://www.w3.org/2000/svg"
   xmlns="http://www.w3.org/2000/svg"
   id="svg8"
   version="1.1"
   viewBox="0 0 256 128"
   height="128"
   width="256">
  <defs
     id="defs2" />
  <metadata
     id="metadata5">
    <rdf:RDF>
      <cc:Work
         rdf:about="">
        <dc:format>image/svg+xml</dc:format>
        <dc:type
           rdf:resource="http://purl.org/dc/dcmitype/StillImage" />
        <dc:title></dc:title>
      </cc:Work>
    </rdf:RDF>
  </metadata>
  <path
     id="path877"
     style="font-style:normal;font-variant:normal;font-weight:normal;font-stretch:normal;font-size:72.31085968px;line-height:1.25;font-family:'Fira Mono';-inkscape-font-specification:'Fira Mono';letter-spacing:-7.23108625px;word-spacing:0px;fill:#000000;fill-opacity:1;stroke:none;stroke-width:1.80777156"
     d="M35.479099 81.653953L33.09284 77.532234L29.739424 78.842868125L25.789443 79.340005L22.4518448125 78.9242176562L20.18535125 77.69493325L18.8950543125 75.6792682187L18.486046 72.904339L18.486046 50.27104L30.923514 50.27104L31.718934 45.498523L18.486046 45.498523L18.486046 36.170422L12.411934 36.893531L12.411934 45.498523L3.6623203 45.498523L3.6623203 50.27104L12.411934 50.27104L12.411934 72.97665L13.2627164531 77.5683895781L15.747272375 81.183932625L19.7639146094 83.5521133594L25.210956 84.401766L30.697542875 83.678657375L35.479099 81.653953L35.479099 81.653953" />
  <path
     id="path879"
     style="font-style:normal;font-variant:normal;font-weight:normal;font-stretch:normal;font-size:72.31085968px;line-height:1.25;font-family:'Fira Mono';-inkscape-font-specification:'Fira Mono';letter-spacing:-7.23108625px;word-spacing:0px;fill:#000000;fill-opacity:1;stroke:none;stroke-width:1.80777156"
     d="M47.382143 29.590134L41.30803 30.240932L41.30803 83.606346L47.382143 83.606346L47.382143 55.838976L51.639444625 51.581674125L54.4697367969 50.1139895156L57.577974 49.547931L60.5393295937 49.9241734219L62.6126175 51.093575625L63.8317334062 53.1171500156L64.230573 56.055909L64.230573 83.606346L70.304685 83.606346L70.304685 55.983598L69.6798739375 51.2314183906L67.74668825 47.685926625L64.4169991875 45.4691470469L59.602678 44.703104L56.1984184062 45.0929047344L52.9229625 46.248748625L49.9322305937 48.1502982031L47.382143 50.777216L47.382143 29.590134" />
  <path
     id="path881"
     style="font-style:normal;font-variant:normal;font-weight:normal;font-stretch:normal;font-size:72.31085968px;line-height:1.25;font-family:'Fira Mono';-inkscape-font-specification:'Fira Mono';letter-spacing:-7.23108625px;word-spacing:0px;fill:#000000;fill-opacity:1;stroke:none;stroke-width:1.80777156"
     d="M96.742212 27.710052L93.560533875 28.921258625L92.331249 31.976392L93.560533875 35.03152625L96.742212 36.242733L99.95100425 35.03152625L101.15317 31.976392L99.95100425 28.921258625L96.742212 27.710052L96.742212 27.710052M102.38246 45.498523L80.472268 45.498523L80.472268 50.343351L96.308347 50.343351L96.308347 77.893788L95.9446742012 81.4669613223L94.8903761719 84.5147510781L90.930226625 89.210437625L84.8685427656 92.3333631094L77.145969 94.236043L78.158321 98.936248L88.410645125 96.2833433438L96.01910375 92.030561L98.7598550234 89.2110024727L100.75320575 85.8796186563L101.970344539 81.9991242617L102.38246 77.532234L102.38246 45.498523" />
  <path
     id="path883"
     style="font-style:normal;font-variant:normal;font-weight:normal;font-stretch:normal;font-size:72.31085968px;line-height:1.25;font-family:'Fira Mono';-inkscape-font-specification:'Fira Mono';letter-spacing:-7.23108625px;word-spacing:0px;fill:#000000;fill-opacity:1;stroke:none;stroke-width:1.80777156"
     d="M139.30506 44.703104L134.678295312 45.3652003125L130.9802725 47.28821725L128.027955937 50.3772468125L125.63831 54.537381L124.48133 45.498523L113.92395 45.498523L113.92395 50.198729L119.92575 50.198729L119.92575 78.90614L113.92395 78.90614L113.92395 83.606346L133.73712 83.606346L133.73712 78.90614L125.99986 78.90614L125.99986 62.853129L128.168056406 57.3484652031L130.98027125 53.416562375L134.429725469 51.0574206094L138.50964 50.27104L138.8712 50.27104L138.8712 58.442167L143.78833 58.442167L144.65606 45.498523L139.30506 44.703104L139.30506 44.703104" />
  <path
     id="path885"
     style="font-style:normal;font-variant:normal;font-weight:normal;font-stretch:normal;font-size:72.31085968px;line-height:1.25;font-family:'Fira Mono';-inkscape-font-specification:'Fira Mono';letter-spacing:-7.23108625px;word-spacing:0px;fill:#000000;fill-opacity:1;stroke:none;stroke-width:1.80777156"
     d="M154.5344 66.685605L180.13245 66.685605L180.27707 63.431616L179.20031625 55.6243032031L176.1101575 49.728708625L171.2167475 46.0024397344L164.73024 44.703104L161.112151934 45.0859843223L157.872002344 46.1933855156L155.041991895 47.9634479199L152.65432125 50.334311875L149.334802031 56.6310057969L148.17105 64.58859L149.328023125 72.6874063594L152.708555 78.942295875L155.190286328 81.2596330371L158.177064375 82.9736264531L161.651941484 84.0368221113L165.59797 84.401766L172.53980875 83.226714375L178.61392 79.990803L175.7938 75.941395L170.88569875 78.481313875L165.59797 79.340005L161.438965156 78.6033382031L157.97821125 76.321026875L155.561444219 72.3846046094L154.5344 66.685605L154.5344 66.685605M164.80255 49.692553L168.714111562 50.4755440469L171.690155 52.810958875L173.608653437 56.6784600156L174.34758 62.05771L154.5344 62.05771L155.559182969 56.5869414063L157.74319875 52.729609L160.889852656 50.4450378438L164.80255 49.692553L164.80255 49.692553" />
  <path
     id="path887"
     style="font-style:normal;font-variant:normal;font-weight:normal;font-stretch:normal;font-size:72.31085968px;line-height:1.25;font-family:'Fira Mono';-inkscape-font-specification:'Fira Mono';letter-spacing:-7.23108625px;word-spacing:0px;fill:#000000;fill-opacity:1;stroke:none;stroke-width:1.80777156"
     d="M213.15026 75.290597L213.15026 56.99595L212.256543906 51.9025535937L209.57991375 48.02940325L205.127146719 45.5663147813L198.90502 44.703104L193.00265 45.27255175L186.39525 47.089362L188.05839 51.717257L193.52690125 50.22584575L197.96498 49.764864L201.756782344 50.168223L204.59950375 51.473208L206.384678281 53.822181L207.00384 57.357504L207.00384 60.466871L201.36359 60.466871L193.7336675 61.2781083906L188.1578225 63.648548625L184.73774375 67.4832837969L183.57512 72.687406L184.417994219 77.5073771719L186.84718875 81.202010375L190.713561406 83.5679313906L195.86797 84.401766L202.64711375 83.054976L205.467236406 81.381657375L207.79926 79.050762L208.853415313 81.3014373437L210.429565 82.901315L214.7411 84.474076L216.25963 80.135425L213.89144625 78.60785775L213.15026 75.290597L213.15026 75.290597M197.3865 79.846181L194.140419531 79.3874590156L191.86375625 78.020331875L190.522614844 75.7583577969L190.0831 72.615095L190.688703906 69.2978345937L192.65013625 66.79407125L196.184327969 65.2122712812L201.50821 64.660901L207.00384 64.660901L207.00384 74.422867L202.764615 78.40900275L197.3865 79.846181L197.3865 79.846181" />
  <path
     id="path889"
     style="font-style:normal;font-variant:normal;font-weight:normal;font-stretch:normal;font-size:72.31085968px;line-height:1.25;font-family:'Fira Mono';-inkscape-font-specification:'Fira Mono';letter-spacing:-7.23108625px;word-spacing:0px;fill:#000000;fill-opacity:1;stroke:none;stroke-width:1.80777156"
     d="M244.79417 29.445512L244.79417 49.258688L240.33801375 45.869116625L234.52603 44.703104L231.20778082 45.0889502031L228.263231563 46.20355425L223.5799725 50.3614285L220.645732188 56.661512L219.62999 64.58859L220.49772125 72.6874063594L223.1551475 78.942295875L225.180417734 81.2596330371L227.6836175 82.9736264531L230.674915391 84.0368221113L234.16448 84.401766L240.03973125 83.000742875L242.645181406 81.1986205781L244.93879 78.616897L245.51728 83.606346L250.86828 83.606346L250.86828 30.168621L244.79417 29.445512M236.11687 49.620242L240.9978525 50.912798875L244.79417 54.537381L244.79417 73.482826L240.93458 77.71301125L238.39805 79.0552814688L235.39376 79.556938L231.426831875 78.6112475625L228.551345 75.7877345L226.801195625 71.1067361875L226.21028 64.58859L226.873505781 58.0094318281L228.80443125 53.335212625L231.914928594 50.5455951094L236.11687 49.620242L236.11687 49.620242" />
</svg>
